<?xml version="1.0" encoding="UTF-8" standalone="no"?>
<!-- Created with Inkscape (http://www.inkscape.org/) -->

<svg
   width="82.999207mm"
   height="82.999207mm"
   viewBox="0 0 82.999207 82.999207"
   version="1.1"
   id="svg5"
   inkscape:version="1.1.1 (3bf5ae0d25, 2021-09-20)"
   sodipodi:docname="ytdlon.svg"
   xmlns:inkscape="http://www.inkscape.org/namespaces/inkscape"
   xmlns:sodipodi="http://sodipodi.sourceforge.net/DTD/sodipodi-0.dtd"
   xmlns="http://www.w3.org/2000/svg"
   xmlns:svg="http://www.w3.org/2000/svg">
  <sodipodi:namedview
     id="namedview7"
     pagecolor="#505050"
     bordercolor="#eeeeee"
     borderopacity="1"
     inkscape:pageshadow="0"
     inkscape:pageopacity="0"
     inkscape:pagecheckerboard="0"
     inkscape:document-units="mm"
     showgrid="false"
     inkscape:zoom="2.1456448"
     inkscape:cx="158.46052"
     inkscape:cy="140.5172"
     inkscape:window-width="1471"
     inkscape:window-height="1080"
     inkscape:window-x="0"
     inkscape:window-y="0"
     inkscape:window-maximized="0"
     inkscape:current-layer="layer1" />
  <defs
     id="defs2">
    <rect
       x="369.12256"
       y="485.36441"
       width="270.46851"
       height="111.48727"
       id="rect19401" />
    <rect
       x="381.18643"
       y="508.93021"
       width="60.903133"
       height="76.994064"
       id="rect4281" />
  </defs>
  <g
     inkscape:label="Layer 1"
     inkscape:groupmode="layer"
     id="layer1"
     transform="translate(-91.643845,-100.99008)">
    <circle
       style="fill:#ff0000;fill-rule:evenodd;stroke-width:0.264583"
       id="path31"
       cx="133.14345"
       cy="142.48969"
       r="41.499603" />
    <text
       xml:space="preserve"
       transform="scale(0.26458333)"
       id="text4279"
       style="font-style:normal;font-weight:normal;font-size:40px;line-height:1.25;font-family:sans-serif;white-space:pre;shape-inside:url(#rect4281);fill:#000000;fill-opacity:1;stroke:none" />
    <text
       xml:space="preserve"
       transform="matrix(0.69678434,0,0,0.69678434,-159.50159,-212.46816)"
       id="text19399"
       style="font-style:normal;font-weight:normal;font-size:40px;line-height:1.25;font-family:sans-serif;white-space:pre;shape-inside:url(#rect19401);fill:#000000;fill-opacity:1;stroke:none"><tspan
         x="369.12305"
         y="520.75586"
         id="tspan30"><tspan
           style="fill:#ffffff"
           id="tspan28">YTDL</tspan></tspan></text>
    <path
       style="fill:#00ff00;stroke-width:0.46606"
       d="m 497.05337,695.05143 c -27.83728,-1.33766 -53.30404,-9.15551 -76.20087,-23.39235 -10.92609,-6.79364 -18.23689,-12.65969 -28.22195,-22.64474 -13.22239,-13.22239 -21.62952,-24.87965 -29.55866,-40.98582 -8.09282,-16.43863 -12.12442,-29.29126 -15.00137,-47.82397 -0.92541,-5.96128 -1.04908,-8.51589 -1.04908,-21.67181 0,-13.15592 0.12367,-15.71053 1.04908,-21.6718 1.22613,-7.89852 2.85307,-15.41599 4.82524,-22.29569 5.15167,-17.97102 15.92069,-38.64618 28.08329,-53.91641 4.89572,-6.14661 18.36113,-19.57636 24.49346,-24.4286 41.69897,-32.99451 95.99098,-42.83677 146.34295,-26.52959 50.69274,16.41753 90.40568,58.93621 103.2136,110.50569 3.41051,13.73199 4.63099,23.83542 4.63099,38.3364 0,25.839 -5.29037,47.9704 -16.98984,71.07421 -23.08245,45.58262 -67.30901,77.01505 -118.3379,84.10439 -5.43695,0.75534 -19.22996,1.70422 -22.61834,1.55601 -1.02533,-0.0448 -3.1226,-0.14201 -4.6606,-0.21592 z M 406.87069,550.28541 v -18.30823 l 12.93318,-19.1441 12.93317,-19.14411 0.13612,3.42993 0.13612,3.42992 h 13.72917 13.72918 v 34.02241 34.02241 h 5.3597 5.35969 v -34.02241 -34.02241 h 13.74878 13.74878 v -4.6606 -4.6606 l -38.10043,0.0164 -38.10044,0.0164 -9.69501,14.54799 c -5.33225,8.0014 -10.07232,15.0468 -10.53347,15.65644 l -0.83847,1.10845 -10.14228,-15.09026 c -5.57825,-8.29967 -10.39502,-15.3592 -10.70394,-15.68788 -0.41153,-0.43787 -2.08546,-0.56245 -6.26251,-0.46606 l -5.70085,0.13154 13.77206,20.3676 13.77206,20.3676 v 18.19889 18.1989 h 5.3597 5.35969 z m 138.10274,16.94955 c 12.40756,-2.722 19.6079,-7.71583 23.83033,-16.52765 2.45721,-5.12798 3.40459,-8.83149 4.00272,-15.64752 0.73276,-8.35015 -0.25357,-16.60644 -2.7955,-23.40035 -2.39378,-6.39794 -7.67465,-12.11624 -14.12218,-15.29195 -7.92092,-3.90143 -16.65697,-5.13987 -36.25689,-5.13987 h -11.62612 v 38.73212 38.73212 l 16.1956,-0.22646 c 14.32141,-0.20025 16.72519,-0.34264 20.77204,-1.23044 z m 92.59714,-3.30193 v -4.6606 h -18.87545 -18.87544 v -34.02241 -34.0224 h -5.3597 -5.35969 v 38.68301 38.68301 h 24.23514 24.23514 z"
       id="path28170"
       transform="scale(0.26458333)" />
    <path
       style="fill:#00ff00;stroke-width:0.46606"
       d="m 518.72518,530.10005 v -29.63844 l 10.8359,0.20399 c 8.21893,0.15473 11.51125,0.39281 13.63227,0.98581 9.32337,2.60664 14.84084,8.18812 17.33863,17.53983 1.1505,4.30743 1.14576,17.16127 -0.008,21.43877 -2.46784,9.15017 -7.03866,14.21333 -15.3137,16.96319 -4.52746,1.50452 -10.22331,2.14238 -19.14475,2.14397 l -7.34045,10e-4 z"
       id="path28209"
       transform="scale(0.26458333)" />
  </g>
</svg>
